<svg xmlns="http://www.w3.org/2000/svg" viewBox="0 0 64 64"><path fill-rule="evenodd" d="M52.76 41.67l2.48.62v0c.44.11.75.51.75.97v1.43 0c-.01.45-.32.85-.76.97l-2.49.62v0c-.45.11-.76.51-.76.97v.71 0c0 2.2-1.8 4-4 4h-.72v-.001c-.46 0-.86.31-.97.75l-.63 2.48v0c-.12.44-.52.75-.97.75h-1.44v0c-.46-.01-.86-.32-.97-.76l-.63-2.49v0c-.12-.45-.52-.76-.97-.76h-1.44v0c-.46 0-.86.31-.97.75l-.63 2.48v0c-.12.44-.52.75-.97.75h-1.44v0c-.46-.01-.86-.32-.97-.76l-.63-2.49v0c-.12-.45-.52-.76-.97-.76h-1.44v0c-.46 0-.86.31-.97.75l-.63 2.48v0c-.12.44-.52.75-.97.75h-1.44v0c-.46-.01-.86-.32-.97-.76l-.63-2.49v0c-.12-.45-.52-.76-.97-.76H23.2v0c-.46 0-.86.31-.97.75l-.63 2.48v0c-.12.44-.52.75-.97.75h-1.44v0c-.46-.01-.86-.32-.97-.76l-.63-2.49v0c-.12-.45-.52-.76-.97-.76h-.72v0c-2.21 0-4-1.8-4-4v-.72 0c-.01-.46-.32-.86-.76-.97l-2.49-.63v0c-.45-.12-.76-.52-.76-.97V43.1v0c0-.46.31-.86.75-.97l2.48-.63v0c.44-.12.75-.52.75-.97v-1.44 0c-.01-.46-.32-.86-.76-.97l-2.49-.63v0c-.45-.12-.76-.52-.76-.97v-1.44 0c0-.46.31-.86.75-.97l2.48-.63v0c.44-.12.75-.52.75-.97v-1.44 0c-.01-.46-.32-.86-.76-.97l-2.49-.63v0c-.45-.12-.76-.52-.76-.97v-1.44 0c0-.46.31-.86.75-.97l2.48-.63v0c.44-.12.75-.52.75-.97v-1.44 0c-.01-.46-.32-.86-.76-.97l-2.49-.63v0c-.45-.12-.76-.52-.76-.97v-1.44 0c0-.46.31-.86.75-.97l2.48-.63v0c.44-.12.75-.52.75-.97v-.72h0c0-2.21 1.79-4 4-4h.71v0c.45-.01.85-.32.97-.76l.62-2.49v0c.11-.45.51-.76.97-.76h1.43v0c.45 0 .85.31.97.75l.62 2.48v0c.11.44.51.75.97.75h1.43v0c.45-.01.85-.32.97-.76l.62-2.49v0c.11-.45.51-.76.97-.76h1.43v0c.45 0 .85.31.97.75l.62 2.48v0c.11.44.51.75.97.75h1.43v0c.45-.01.85-.32.97-.76l.62-2.49v0c.11-.45.51-.76.97-.76h1.43v0c.45 0 .85.31.97.75l.62 2.48v0c.11.44.51.75.97.75h1.43v0c.45-.01.85-.32.97-.76l.62-2.49v0c.11-.45.51-.76.97-.76h1.43v0c.45 0 .85.31.97.75l.62 2.48v0c.11.44.51.75.97.75h.71v0c2.2 0 4 1.79 4 4v.71h0c0 .45.31.85.75.97l2.48.62v0c.44.11.75.51.75.97v1.43 0c-.01.45-.32.85-.76.97l-2.49.62v0c-.45.11-.76.51-.76.97v1.43 0c0 .45.31.85.75.97l2.48.62v0c.44.11.75.51.75.97v1.43 0c-.01.45-.32.85-.76.97l-2.49.62v0c-.45.11-.76.51-.76.97v1.43 0c0 .45.31.85.75.97l2.48.62v0c.44.11.75.51.75.97v1.43 0c-.01.45-.32.85-.76.97l-2.49.62v0c-.45.11-.76.51-.76.97v1.43 0c-.01.45.31.86.75.97ZM48 18.98v0c0-1.66-1.35-3-3-3H19v0c-1.66 0-3 1.34-3 3v26 0c0 1.65 1.34 3 3 3h26v0c1.65 0 3-1.35 3-3Zm-3 27H19v0c-.56 0-1-.45-1-1v-26 0c0-.56.44-1 1-1h26v0c.55 0 1 .44 1 1v26 0c0 .55-.45 1-1 1Zm-20-24v0c-1.66 0-3 1.34-3 3 0 1.65 1.34 3 3 3 1.65 0 3-1.35 3-3h0c-.01-1.66-1.35-3-3-3Z" fill="#337ea9" /></svg>